<svg width="33" height="33" viewBox="0 0 33 33" fill="none" xmlns="http://www.w3.org/2000/svg">
<path fill-rule="evenodd" clip-rule="evenodd" d="M2.23339 18.9604C2.0305 19.0399 1.84045 19.1491 1.6679 19.2822C1.59102 19.3415 1.51458 19.4043 1.46527 19.4546C1.30849 19.6144 1.16893 19.7866 1.10253 19.8862C1.03613 19.9858 0.803734 20.4174 0.737336 20.7826C0.704137 21.181 0.670805 21.4466 0.862692 22.1105C3.21722 28.4477 9.14904 32.9999 16.3512 32.9999C23.3758 32.9999 29.3888 28.7009 31.8656 22.609C32.6389 20.7071 31.0472 18.857 28.9942 18.857V18.857H27.887H22.9697C23.2322 18.1198 23.375 17.3264 23.375 16.4999C23.375 12.5944 20.1854 9.42845 16.2508 9.42845C12.3162 9.42845 9.12659 12.5944 9.12659 16.4999C9.12659 20.3942 12.2982 23.5533 16.2174 23.5712V23.5713H16.2508H24.4155C24.964 23.5713 25.2648 24.191 24.8868 24.5884C22.7219 26.8649 19.6535 28.2856 16.2508 28.2856C11.0893 28.2856 7.02893 25.0166 5.39264 20.4506C5.19292 19.8933 4.99011 19.6206 4.55524 19.2554C4.32912 19.0908 4.15603 19.0152 3.89126 18.9234C3.62764 18.832 3.44995 18.8033 3.17101 18.7906C2.89576 18.7781 2.70041 18.8159 2.43523 18.8902C2.37528 18.907 2.30359 18.9328 2.23339 18.9604ZM16.2508 18.857C17.5624 18.857 18.6256 17.8017 18.6256 16.4999C18.6256 15.1981 17.5624 14.1427 16.2508 14.1427C14.9393 14.1427 13.8761 15.1981 13.8761 16.4999C13.8761 17.8017 14.9393 18.857 16.2508 18.857Z" fill="white"/>
<path fill-rule="evenodd" clip-rule="evenodd" d="M21.5801 11.8068L17.4947 14.4915C18.1732 14.9064 18.6255 15.6507 18.6255 16.4998C18.6255 17.7827 17.593 18.8262 16.3077 18.8563L16.3077 18.857H25.0723L25.0723 18.8569H22.9696C23.2322 18.1197 23.375 17.3263 23.375 16.4998C23.375 14.6989 22.6968 13.0553 21.5801 11.8068Z" fill="white"/>
<path fill-rule="evenodd" clip-rule="evenodd" d="M31.585 10.1857C32.1127 11.4597 32.4774 12.792 32.6729 14.1508C32.8582 15.4394 31.7856 16.5 30.4838 16.5L-nan -nanL-nan -nanL30.4838 16.5C29.182 16.5 28.1504 15.4343 27.8918 14.1585C27.435 11.9051 26.3247 9.81624 24.6747 8.16624C22.4645 5.95599 19.4667 4.71429 16.341 4.71429C13.2152 4.71429 10.2175 5.95599 8.00721 8.16624C6.33339 9.84005 5.21504 11.9655 4.77077 14.2561C4.53338 15.4801 3.54451 16.5 2.2977 16.5L-nan -nanL2.2977 16.5L-nan -nanL2.2977 16.5C0.940884 16.5 -0.177755 15.3941 0.0235236 14.0523C0.22224 12.7276 0.581995 11.4289 1.09695 10.1857C1.92615 8.18385 3.14153 6.36491 4.6737 4.83274C6.20587 3.30057 8.02481 2.08519 10.0267 1.25599C12.0286 0.426785 14.1742 0 16.341 0C18.5078 0 20.6534 0.426785 22.6552 1.25599C24.6571 2.08519 26.4761 3.30057 28.0082 4.83274C29.5404 6.3649 30.7558 8.18385 31.585 10.1857Z" fill="white"/>
</svg>
